HIERARCHY
ROOT Hips
{
	OFFSET 0.000000 71.427986 0.000000
	CHANNELS 6 Xposition Yposition Zposition Xrotation Yrotation Zrotation
	JOINT Pelvis
	{
		OFFSET 0.000000 0.000000 0.000000
		CHANNELS 3 Xrotation Yrotation Zrotation
		JOINT LeftUpLeg
		{
			OFFSET 6.797100 -2.508499 -1.318700
			CHANNELS 3 Xrotation Yrotation Zrotation
			JOINT LeftLeg
			{
				OFFSET 0.069008 -29.241863 0.690200
				CHANNELS 3 Xrotation Yrotation Zrotation
				JOINT LeftFoot
				{
					OFFSET -0.069008 -29.568123 -0.266800
					CHANNELS 3 Xrotation Yrotation Zrotation
					JOINT LeftToeBase
					{
						OFFSET 3.145500 -8.631000 16.059900
						CHANNELS 3 Xrotation Yrotation Zrotation
						End Site
						{
							OFFSET 0.000000 18.501587 0.000000
						}
					}
				}
			}
			JOINT Left_ShortSleeve
			{
				OFFSET 0.265923 -10.480953 1.153800
				CHANNELS 3 Xrotation Yrotation Zrotation
				End Site
				{
					OFFSET 1.725763 19.823879 0.000000
				}
			}
		}
		JOINT RightUpLeg
		{
			OFFSET -6.797100 -2.508499 -1.318700
			CHANNELS 3 Xrotation Yrotation Zrotation
			JOINT RightLeg
			{
				OFFSET -0.082453 -29.241932 0.688000
				CHANNELS 3 Xrotation Yrotation Zrotation
				JOINT RightFoot
				{
					OFFSET 0.082453 -29.568058 -0.264600
					CHANNELS 3 Xrotation Yrotation Zrotation
					JOINT RightToeBase
					{
						OFFSET -3.115300 -8.682800 16.113400
						CHANNELS 3 Xrotation Yrotation Zrotation
						End Site
						{
							OFFSET 0.000000 18.567114 0.000000
						}
					}
				}
			}
			JOINT Right_ShortSleeve
			{
				OFFSET -0.265923 -10.480953 1.153800
				CHANNELS 3 Xrotation Yrotation Zrotation
				End Site
				{
					OFFSET -1.725766 19.823910 0.000000
				}
			}
		}
	}
	JOINT Spine
	{
		OFFSET 0.000000 13.368103 0.470500
		CHANNELS 3 Xrotation Yrotation Zrotation
		JOINT Spine1
		{
			OFFSET 0.147000 13.837402 0.538800
			CHANNELS 3 Xrotation Yrotation Zrotation
			JOINT Spine2
			{
				OFFSET 0.168000 16.242897 -1.435500
				CHANNELS 3 Xrotation Yrotation Zrotation
				JOINT Neck
				{
					OFFSET 0.217200 18.631500 -1.679100
					CHANNELS 3 Xrotation Yrotation Zrotation
					JOINT Head
					{
						OFFSET 0.000000 6.599396 1.385900
						CHANNELS 3 Xrotation Yrotation Zrotation
						JOINT Hat
						{
							OFFSET -0.532200 27.220596 -10.096100
							CHANNELS 3 Xrotation Yrotation Zrotation
							End Site
							{
								OFFSET 0.000000 22.029861 0.000000
							}
						}
						JOINT HairD
						{
							OFFSET -10.777400 17.437393 -1.325900
							CHANNELS 3 Xrotation Yrotation Zrotation
							JOINT HairD1
							{
								OFFSET -3.290299 -11.051193 1.062200
								CHANNELS 3 Xrotation Yrotation Zrotation
								End Site
								{
									OFFSET 0.000000 11.579437 0.000000
								}
							}
						}
						JOINT HairB
						{
							OFFSET -10.777400 17.437393 1.467900
							CHANNELS 3 Xrotation Yrotation Zrotation
							JOINT HairB1
							{
								OFFSET -1.561200 -12.956299 3.590200
								CHANNELS 3 Xrotation Yrotation Zrotation
								End Site
								{
									OFFSET 0.000000 13.534866 0.000000
								}
							}
						}
						JOINT HairA
						{
							OFFSET 9.713100 17.437393 1.467900
							CHANNELS 3 Xrotation Yrotation Zrotation
							JOINT HairA1
							{
								OFFSET 1.561200 -12.956299 3.590200
								CHANNELS 3 Xrotation Yrotation Zrotation
								End Site
								{
									OFFSET 0.000000 13.534866 0.000000
								}
							}
						}
						JOINT HairC
						{
							OFFSET 9.713100 17.437393 -1.325900
							CHANNELS 3 Xrotation Yrotation Zrotation
							JOINT HairC1
							{
								OFFSET 3.290300 -11.051193 1.062200
								CHANNELS 3 Xrotation Yrotation Zrotation
								End Site
								{
									OFFSET 0.000000 11.579437 0.000000
								}
							}
						}
					}
				}
				JOINT LeftShoulder
				{
					OFFSET 5.101800 15.108002 -2.763700
					CHANNELS 3 Xrotation Yrotation Zrotation
					JOINT LeftArm
					{
						OFFSET 9.825497 2.506317 -1.597400
						CHANNELS 3 Xrotation Yrotation Zrotation
						JOINT LeftForeArm
						{
							OFFSET 21.966244 0.000000 0.000000
							CHANNELS 3 Xrotation Yrotation Zrotation
							JOINT LeftHand
							{
								OFFSET 33.879036 0.000000 0.000000
								CHANNELS 3 Xrotation Yrotation Zrotation
								JOINT LeftHandThumb1
								{
									OFFSET 6.715286 -2.359680 3.363841
									CHANNELS 3 Xrotation Yrotation Zrotation
									JOINT LeftHandThumb2
									{
										OFFSET 2.507072 -1.447464 1.447461
										CHANNELS 3 Xrotation Yrotation Zrotation
										JOINT LeftHandThumb3
										{
											OFFSET 2.898338 -1.673355 1.673357
											CHANNELS 3 Xrotation Yrotation Zrotation
											End Site
											{
												OFFSET -0.295959 3.727692 -0.131651
											}
										}
									}
								}
								JOINT LeftHandIndex1
								{
									OFFSET 14.190811 -0.254547 3.840278
									CHANNELS 3 Xrotation Yrotation Zrotation
									JOINT LeftHandIndex2
									{
										OFFSET 3.551727 0.000000 -0.000000
										CHANNELS 3 Xrotation Yrotation Zrotation
										JOINT LeftHandIndex3
										{
											OFFSET 2.894196 0.000000 0.000000
											CHANNELS 3 Xrotation Yrotation Zrotation
											End Site
											{
												OFFSET -1.000603 2.690872 0.366626
											}
										}
									}
								}
								JOINT LeftHandMiddle1
								{
									OFFSET 13.776489 0.000000 0.000000
									CHANNELS 3 Xrotation Yrotation Zrotation
									JOINT LeftHandMiddle2
									{
										OFFSET 3.438232 0.000000 0.000000
										CHANNELS 3 Xrotation Yrotation Zrotation
										JOINT LeftHandMiddle3
										{
											OFFSET 3.691551 0.000000 0.000000
											CHANNELS 3 Xrotation Yrotation Zrotation
											End Site
											{
												OFFSET -1.082298 3.499527 0.457670
											}
										}
									}
								}
								JOINT LeftHandRing1
								{
									OFFSET 13.966164 -0.268127 -3.067488
									CHANNELS 3 Xrotation Yrotation Zrotation
									JOINT LeftHandRing2
									{
										OFFSET 3.162567 0.000000 0.000000
										CHANNELS 3 Xrotation Yrotation Zrotation
										JOINT LeftHandRing3
										{
											OFFSET 3.324348 0.000000 0.000000
											CHANNELS 3 Xrotation Yrotation Zrotation
											End Site
											{
												OFFSET -0.861900 3.184998 0.405154
											}
										}
									}
								}
								JOINT LeftHandPinky1
								{
									OFFSET 13.131393 -0.168503 -5.746925
									CHANNELS 3 Xrotation Yrotation Zrotation
									JOINT LeftHandPinky2
									{
										OFFSET 2.849182 0.000000 0.000000
										CHANNELS 3 Xrotation Yrotation Zrotation
										JOINT LeftHandPinky3
										{
											OFFSET 2.805038 0.000000 0.000000
											CHANNELS 3 Xrotation Yrotation Zrotation
											End Site
											{
												OFFSET -0.882500 2.642609 0.325652
											}
										}
									}
								}
							}
							JOINT Left_Sleeve
							{
								OFFSET 6.592125 -0.646545 0.805568
								CHANNELS 3 Xrotation Yrotation Zrotation
								End Site
								{
									OFFSET -0.000179 20.275787 -0.000000
								}
							}
						}
					}
				}
				JOINT RightShoulder
				{
					OFFSET -5.731700 15.108002 -2.763700
					CHANNELS 3 Xrotation Yrotation Zrotation
					JOINT RightArm
					{
						OFFSET -9.825497 2.506317 -1.597400
						CHANNELS 3 Xrotation Yrotation Zrotation
						JOINT RightForeArm
						{
							OFFSET -21.966242 0.000000 0.000000
							CHANNELS 3 Xrotation Yrotation Zrotation
							JOINT RightHand
							{
								OFFSET -33.879032 0.000000 0.000000
								CHANNELS 3 Xrotation Yrotation Zrotation
								JOINT RightHandThumb1
								{
									OFFSET -6.715286 -2.359680 3.363841
									CHANNELS 3 Xrotation Yrotation Zrotation
									JOINT RightHandThumb2
									{
										OFFSET -2.507072 -1.447464 1.447461
										CHANNELS 3 Xrotation Yrotation Zrotation
										JOINT RightHandThumb3
										{
											OFFSET -2.898338 -1.673355 1.673357
											CHANNELS 3 Xrotation Yrotation Zrotation
											End Site
											{
												OFFSET 0.295959 3.727692 -0.131651
											}
										}
									}
								}
								JOINT RightHandIndex1
								{
									OFFSET -14.190811 -0.254547 3.840278
									CHANNELS 3 Xrotation Yrotation Zrotation
									JOINT RightHandIndex2
									{
										OFFSET -3.551727 0.000000 -0.000000
										CHANNELS 3 Xrotation Yrotation Zrotation
										JOINT RightHandIndex3
										{
											OFFSET -2.894196 0.000000 0.000000
											CHANNELS 3 Xrotation Yrotation Zrotation
											End Site
											{
												OFFSET 1.000603 2.690872 0.366626
											}
										}
									}
								}
								JOINT RightHandMiddle1
								{
									OFFSET -13.776489 0.000000 0.000000
									CHANNELS 3 Xrotation Yrotation Zrotation
									JOINT RightHandMiddle2
									{
										OFFSET -3.438232 0.000000 0.000000
										CHANNELS 3 Xrotation Yrotation Zrotation
										JOINT RightHandMiddle3
										{
											OFFSET -3.691551 0.000000 0.000000
											CHANNELS 3 Xrotation Yrotation Zrotation
											End Site
											{
												OFFSET 1.082298 3.499527 0.457670
											}
										}
									}
								}
								JOINT RightHandRing1
								{
									OFFSET -13.966164 -0.268127 -3.067488
									CHANNELS 3 Xrotation Yrotation Zrotation
									JOINT RightHandRing2
									{
										OFFSET -3.162567 0.000000 0.000000
										CHANNELS 3 Xrotation Yrotation Zrotation
										JOINT RightHandRing3
										{
											OFFSET -3.324348 0.000000 0.000000
											CHANNELS 3 Xrotation Yrotation Zrotation
											End Site
											{
												OFFSET 0.861900 3.184998 0.405154
											}
										}
									}
								}
								JOINT RightHandPinky1
								{
									OFFSET -13.131393 -0.168503 -5.746925
									CHANNELS 3 Xrotation Yrotation Zrotation
									JOINT RightHandPinky2
									{
										OFFSET -2.849182 0.000000 0.000000
										CHANNELS 3 Xrotation Yrotation Zrotation
										JOINT RightHandPinky3
										{
											OFFSET -2.805038 0.000000 0.000000
											CHANNELS 3 Xrotation Yrotation Zrotation
											End Site
											{
												OFFSET 0.882500 2.642609 0.325652
											}
										}
									}
								}
							}
							JOINT Right_Sleeve
							{
								OFFSET -6.592125 -0.646545 0.805568
								CHANNELS 3 Xrotation Yrotation Zrotation
								End Site
								{
									OFFSET 0.000179 20.275787 -0.000000
								}
							}
						}
					}
				}
				JOINT Bind_Right_JacketString
				{
					OFFSET -3.534800 11.969597 7.200700
					CHANNELS 3 Xrotation Yrotation Zrotation
					JOINT Bind_Right_JacketString1
					{
						OFFSET -0.319900 -6.102600 2.794100
						CHANNELS 3 Xrotation Yrotation Zrotation
						End Site
						{
							OFFSET 0.000000 6.719452 0.000000
						}
					}
				}
				JOINT Bind_Left_JacketString
				{
					OFFSET 2.904800 11.969597 7.200700
					CHANNELS 3 Xrotation Yrotation Zrotation
					JOINT Bind_Left_JacketString1
					{
						OFFSET 0.364800 -5.904503 3.186800
						CHANNELS 3 Xrotation Yrotation Zrotation
						End Site
						{
							OFFSET 0.000000 6.719513 0.000000
						}
					}
				}
				JOINT HairE
				{
					OFFSET 5.915200 17.612701 -11.592200
					CHANNELS 3 Xrotation Yrotation Zrotation
					JOINT HairE1
					{
						OFFSET 0.289200 -7.171898 -1.284500
						CHANNELS 3 Xrotation Yrotation Zrotation
						End Site
						{
							OFFSET 0.000000 7.291756 0.000000
						}
					}
				}
				JOINT HairF
				{
					OFFSET -0.864800 17.612701 -11.592200
					CHANNELS 3 Xrotation Yrotation Zrotation
					JOINT HairF1
					{
						OFFSET 0.000000 -14.087097 -2.127501
						CHANNELS 3 Xrotation Yrotation Zrotation
						End Site
						{
							OFFSET 0.000000 14.246841 0.000000
						}
					}
				}
				JOINT HairG
				{
					OFFSET -8.087700 17.612701 -11.592200
					CHANNELS 3 Xrotation Yrotation Zrotation
					JOINT HairG1
					{
						OFFSET -0.293600 -6.081398 -0.910100
						CHANNELS 3 Xrotation Yrotation Zrotation
						End Site
						{
							OFFSET 0.000000 6.156120 0.000000
						}
					}
				}
			}
		}
	}
	JOINT Pouch
	{
		OFFSET 0.000000 4.394501 10.847300
		CHANNELS 3 Xrotation Yrotation Zrotation
		End Site
		{
			OFFSET 0.000000 21.880577 0.000000
		}
	}
	JOINT Bag
	{
		OFFSET -13.229000 4.813004 -0.593300
		CHANNELS 3 Xrotation Yrotation Zrotation
		End Site
		{
			OFFSET 0.000000 21.880577 0.000000
		}
	}
	JOINT OccupyGuyFacialAnim_Joint
	{
		OFFSET 1.000000 -70.206398 -1.655000
		CHANNELS 3 Xrotation Yrotation Zrotation
		End Site
		{
			OFFSET 0.000000 21.880577 0.000000
		}
	}
}
MOTION
Frames: 4
Frame Time: 0.033333
-0.034640 64.282242 0.069204 3.669185 -26.178947 1.826731 0.000000 -0.000001 -0.000000 -43.659635 3.930521 11.226996 83.058201 5.206125 -2.071176 -3.805885 0.221050 -2.771754 0.000002 0.000000 0.000001 0.000002 -0.000000 -0.000000 -34.416350 -6.182562 1.654886 54.840395 -4.829474 3.535614 -22.619213 1.568886 -6.121352 -0.000000 0.000003 -0.000000 0.000000 -0.000001 -0.000002 20.241884 -3.070161 5.122758 5.503346 -1.158561 0.103610 0.214634 0.580093 1.704615 -18.289512 3.647838 -7.060200 -1.119180 21.772517 -0.720372 0.000001 -0.000000 -0.000000 0.000001 -0.000000 -0.000000 0.000001 -0.000000 0.000000 0.000001 -0.000000 -0.000000 0.000001 -0.000000 -0.000000 0.000001 -0.000000 -0.000000 0.000001 -0.000000 -0.000000 0.000001 -0.000000 -0.000000 0.000001 -0.000000 -0.000000 6.207786 -20.160034 5.956842 -29.617104 -12.120265 -79.965478 -9.742353 -51.181548 -15.100889 -36.274274 -4.208454 3.531522 -7.471928 1.860690 -7.166912 30.987021 27.310506 -4.510900 0.000008 -0.000003 -0.000003 -4.707150 11.366763 -75.716540 -0.816409 3.073978 -46.874642 0.000002 -0.000002 0.000001 1.623350 16.580967 -84.691279 0.018006 0.022041 -72.884853 -0.000001 0.000001 -0.000001 -6.436878 23.133405 -89.739827 0.012864 0.975932 -51.002959 0.000001 0.000002 0.000001 -17.080771 22.136889 -87.150086 0.011716 0.023176 -58.127259 0.000000 0.000000 0.000001 0.000001 0.000006 -0.000001 10.507676 31.794845 -28.576579 -42.197015 15.796086 81.780341 -12.479959 52.286765 3.654909 -20.250696 9.832556 16.710556 9.347170 2.810546 -11.364526 16.169078 -43.266011 15.843575 0.000001 0.000002 0.000000 17.076771 -0.396548 31.924349 -0.204430 -0.284184 112.811564 -0.000000 0.000000 0.000002 9.205472 -5.035893 102.738100 0.014964 -0.019213 61.018492 0.000001 -0.000001 -0.000001 5.569113 -8.935195 107.329080 0.547962 -0.005798 41.263707 -0.000000 0.000001 -0.000004 6.511242 -17.148233 98.228010 0.007402 -0.015735 43.845754 -0.000002 -0.000002 0.000000 0.000000 0.000002 -0.000001 -0.000002 0.000000 -0.000000 -0.000001 0.000001 0.000001 -0.000002 0.000000 -0.000001 -0.000002 0.000000 -0.000001 -0.000002 0.000000 -0.000000 -0.000001 0.000001 0.000001 -0.000002 0.000000 -0.000001 -0.000002 0.000000 -0.000001 -0.000002 0.000000 -0.000000 -0.000001 0.000001 0.000001 0.000000 -0.000001 -0.000000 0.000000 -0.000001 -0.000000 0.000000 -0.000001 -0.000000 
0.242351 64.219902 2.075541 2.391473 -32.190712 1.452211 0.000000 -0.000001 -0.000000 -46.792291 2.018783 11.426521 76.000956 11.520626 -1.125433 -7.625383 -0.268950 0.099843 -0.000000 -0.000000 0.000000 -0.000002 -0.000001 -0.000000 -33.248794 -5.245494 1.670212 57.193166 -0.924531 2.425056 -23.225368 1.535244 -6.178337 0.000000 0.000004 -0.000000 -0.000000 0.000001 -0.000000 21.240365 -1.725042 5.569495 5.190792 -0.948431 -0.024285 -0.092473 0.790983 1.587369 -17.156030 4.422165 -7.113797 -0.698690 23.980620 -1.778780 -0.000000 -0.000000 -0.000000 -0.000000 -0.000000 -0.000000 -0.000000 -0.000000 0.000000 -0.000000 -0.000000 -0.000000 -0.000000 -0.000000 -0.000000 -0.000000 -0.000000 -0.000000 -0.000000 -0.000000 -0.000000 -0.000000 -0.000000 -0.000000 -0.000000 -0.000000 -0.000000 5.815027 -19.403123 4.194295 -26.422906 -10.335458 -77.319087 -10.319894 -56.747312 -17.603933 -37.194946 -3.829863 5.060012 -7.471931 1.860688 -7.166908 30.987021 27.310503 -4.510902 0.000000 0.000002 -0.000001 -4.707150 11.366761 -75.716533 -0.816406 3.073982 -46.874642 0.000000 -0.000002 -0.000004 1.623350 16.580964 -84.691279 0.018007 0.022043 -72.884853 0.000000 0.000002 -0.000001 -6.436879 23.133400 -89.739827 0.012865 0.975931 -51.002959 -0.000002 0.000001 0.000001 -17.080777 22.136882 -87.150086 0.011714 0.023177 -58.127266 -0.000000 0.000001 0.000001 -0.000001 0.000003 -0.000002 10.124084 33.394140 -27.002542 -41.480815 15.437139 80.690714 -12.409344 55.944133 5.300331 -17.644738 6.948420 15.358269 9.347169 2.810542 -11.364525 16.169078 -43.266007 15.843578 -0.000001 -0.000001 0.000000 17.076769 -0.396550 31.924342 -0.204428 -0.284184 112.811564 0.000000 -0.000000 0.000000 9.205472 -5.035893 102.738094 0.014963 -0.019211 61.018492 -0.000001 -0.000000 0.000001 5.569113 -8.935194 107.329080 0.547963 -0.005794 41.263700 -0.000001 -0.000001 0.000001 6.511240 -17.148233 98.228010 0.007398 -0.015735 43.845757 -0.000001 0.000001 -0.000003 -0.000000 -0.000000 0.000001 -0.000000 0.000002 -0.000002 -0.000000 -0.000001 0.000000 -0.000000 0.000002 -0.000002 -0.000000 0.000002 -0.000002 -0.000000 0.000002 -0.000002 -0.000000 -0.000001 0.000000 -0.000000 0.000002 -0.000002 -0.000000 0.000002 -0.000002 -0.000000 0.000002 -0.000002 -0.000000 -0.000001 0.000000 0.000000 -0.000001 -0.000000 0.000000 -0.000001 -0.000000 0.000000 -0.000001 -0.000000 
0.645338 64.120804 4.091323 0.552389 -38.801208 1.358154 -0.000000 -0.000001 -0.000000 -46.097517 1.517971 12.381401 63.257490 10.645564 0.348147 -5.441152 -0.876218 3.473336 0.000000 0.000002 -0.000002 0.000000 -0.000001 -0.000003 -32.573613 -3.447348 1.311341 60.387943 2.568047 0.450217 -23.528858 1.341842 -5.691857 0.000000 -0.000001 0.000000 -0.000002 -0.000003 0.000001 22.468974 -0.391443 5.692683 4.985687 -0.671919 -0.012247 -0.291762 1.069709 1.604946 -16.324663 5.555802 -7.724526 0.290684 26.371266 -2.842307 0.000001 -0.000000 -0.000000 0.000001 -0.000000 -0.000000 0.000001 -0.000000 -0.000000 0.000001 -0.000000 -0.000000 0.000000 -0.000000 0.000000 0.000001 -0.000000 -0.000000 0.000000 -0.000000 0.000000 0.000001 -0.000000 -0.000000 0.000001 -0.000000 -0.000000 5.437070 -19.599472 2.974474 -23.536350 -8.264574 -75.689527 -11.715165 -61.344313 -19.576133 -37.105402 -3.644884 5.725909 -7.471928 1.860692 -7.166914 30.987021 27.310508 -4.510902 0.000001 -0.000000 -0.000001 -4.707147 11.366764 -75.716540 -0.816410 3.073979 -46.874639 0.000001 0.000000 -0.000002 1.623355 16.580957 -84.691286 0.018005 0.022036 -72.884860 -0.000002 0.000002 0.000003 -6.436877 23.133405 -89.739827 0.012865 0.975936 -51.002969 -0.000001 -0.000000 -0.000001 -17.080771 22.136882 -87.150086 0.011715 0.023178 -58.127266 0.000002 0.000000 0.000001 0.000000 0.000006 0.000000 10.473123 34.170227 -27.667209 -41.180850 15.321545 80.039640 -12.692039 58.997323 7.775512 -16.620068 5.619704 12.938671 9.347171 2.810545 -11.364524 16.169078 -43.266014 15.843577 0.000001 0.000001 -0.000001 17.076769 -0.396548 31.924345 -0.204427 -0.284183 112.811571 -0.000000 -0.000001 0.000004 9.205472 -5.035891 102.738094 0.014963 -0.019211 61.018485 0.000001 -0.000002 0.000001 5.569112 -8.935192 107.329087 0.547960 -0.005795 41.263700 -0.000000 -0.000001 -0.000000 6.511240 -17.148235 98.228017 0.007401 -0.015735 43.845754 0.000000 -0.000000 0.000002 -0.000000 -0.000000 0.000000 -0.000002 0.000001 -0.000001 -0.000001 0.000001 -0.000002 -0.000002 0.000001 -0.000000 -0.000002 0.000001 -0.000000 -0.000002 0.000001 -0.000001 -0.000001 0.000001 -0.000002 -0.000002 0.000001 -0.000000 -0.000002 0.000001 -0.000000 -0.000002 0.000001 -0.000001 -0.000001 0.000001 -0.000002 -0.000000 -0.000001 -0.000000 -0.000000 -0.000001 -0.000000 -0.000000 -0.000001 -0.000000 
1.159094 63.892715 6.364102 -0.176459 -46.451037 2.260145 -0.000000 -0.000001 0.000000 -45.059407 2.935110 11.431306 53.152976 -0.413877 5.447375 -2.502160 -1.121073 5.201944 0.000000 0.000002 -0.000001 -0.000004 0.000001 0.000001 -33.525174 -1.230277 0.462607 64.368174 5.432852 -1.778046 -23.930486 1.192183 -5.315831 -0.000000 0.000001 -0.000000 -0.000000 0.000002 0.000001 22.326498 1.191643 5.951090 4.927628 -0.376210 -0.156443 -0.337136 1.380952 1.462641 -16.225652 6.921729 -8.491768 2.144883 29.051899 -3.997027 0.000001 0.000000 -0.000000 0.000001 0.000000 -0.000000 0.000001 0.000000 -0.000000 0.000001 0.000000 -0.000000 0.000000 0.000000 0.000000 0.000001 0.000000 -0.000000 0.000000 0.000000 0.000000 0.000001 0.000000 -0.000000 0.000001 0.000000 -0.000000 5.093341 -19.474862 1.841722 -22.000531 -7.710879 -74.768004 -11.542050 -62.846852 -20.773368 -38.544711 -6.848253 6.546550 -7.471934 1.860692 -7.166905 30.987021 27.310508 -4.510903 0.000002 0.000007 0.000002 -4.707150 11.366764 -75.716533 -0.816411 3.073981 -46.874642 0.000002 -0.000003 0.000001 1.623358 16.580967 -84.691286 0.018009 0.022044 -72.884860 -0.000001 -0.000000 -0.000001 -6.436872 23.133403 -89.739827 0.012867 0.975938 -51.002976 -0.000001 -0.000001 0.000001 -17.080775 22.136887 -87.150086 0.011715 0.023177 -58.127266 -0.000000 -0.000001 -0.000001 0.000001 0.000001 -0.000001 11.040379 34.671929 -28.760902 -40.762436 15.238932 79.199383 -12.583743 61.182963 10.390398 -15.299263 4.798257 11.365490 9.347170 2.810545 -11.364525 16.169078 -43.266014 15.843578 0.000001 -0.000004 0.000002 17.076771 -0.396549 31.924342 -0.204431 -0.284185 112.811564 0.000000 0.000000 0.000000 9.205470 -5.035891 102.738100 0.014965 -0.019212 61.018492 -0.000000 -0.000001 -0.000004 5.569111 -8.935194 107.329080 0.547961 -0.005793 41.263703 0.000000 0.000001 -0.000002 6.511240 -17.148235 98.228017 0.007405 -0.015735 43.845754 -0.000001 -0.000000 0.000000 0.000000 -0.000001 -0.000000 -0.000001 -0.000000 -0.000000 -0.000001 0.000003 -0.000001 -0.000001 -0.000000 0.000001 -0.000001 -0.000000 0.000001 -0.000001 -0.000000 -0.000000 -0.000001 0.000003 -0.000001 -0.000001 -0.000000 0.000001 -0.000001 -0.000000 0.000001 -0.000001 -0.000000 -0.000000 -0.000001 0.000003 -0.000001 -0.000000 -0.000001 0.000000 -0.000000 -0.000001 0.000000 -0.000000 -0.000001 0.000000 
